<?xml version="1.0" encoding="UTF-8" standalone="no"?>
<!-- Created with Inkscape (http://www.inkscape.org/) -->

<svg
   xmlns:dc="http://purl.org/dc/elements/1.1/"
   xmlns:cc="http://creativecommons.org/ns#"
   xmlns:rdf="http://www.w3.org/1999/02/22-rdf-syntax-ns#"
   xmlns:svg="http://www.w3.org/2000/svg"
   xmlns="http://www.w3.org/2000/svg"
   xmlns:xlink="http://www.w3.org/1999/xlink"
   xmlns:sodipodi="http://sodipodi.sourceforge.net/DTD/sodipodi-0.dtd"
   xmlns:inkscape="http://www.inkscape.org/namespaces/inkscape"
   width="24"
   height="24"
   id="svg2"
   version="1.1"
   inkscape:version="0.48.5 r10040"
   sodipodi:docname="New document 1">
  <defs
     id="defs4">
    <radialGradient
       cx="173.78099"
       cy="150.8327"
       r="206.90388"
       fx="173.78099"
       fy="150.8327"
       id="radialGradient5217-3"
       xlink:href="#linearGradient5211-6"
       gradientUnits="userSpaceOnUse"
       gradientTransform="matrix(-0.6101056,0.6619819,-0.6829184,-0.6294014,402.98608,80.149634)" />
    <linearGradient
       id="linearGradient5211-6">
      <stop
         style="stop-color:#ffffff;stop-opacity:0.62886596"
         offset="0"
         id="stop5213-7" />
      <stop
         style="stop-color:#ffffff;stop-opacity:0"
         offset="1"
         id="stop5215-5" />
    </linearGradient>
  </defs>
  <sodipodi:namedview
     id="base"
     pagecolor="#ffffff"
     bordercolor="#666666"
     borderopacity="1.0"
     inkscape:pageopacity="0.0"
     inkscape:pageshadow="2"
     inkscape:zoom="31.678384"
     inkscape:cx="11.794509"
     inkscape:cy="12.768057"
     inkscape:document-units="px"
     inkscape:current-layer="layer1"
     showgrid="false"
     inkscape:window-width="958"
     inkscape:window-height="1059"
     inkscape:window-x="0"
     inkscape:window-y="19"
     inkscape:window-maximized="0" />
  <metadata
     id="metadata7">
    <rdf:RDF>
      <cc:Work
         rdf:about="">
        <dc:format>image/svg+xml</dc:format>
        <dc:type
           rdf:resource="http://purl.org/dc/dcmitype/StillImage" />
        <dc:title></dc:title>
      </cc:Work>
    </rdf:RDF>
  </metadata>
  <g
     inkscape:label="Layer 1"
     inkscape:groupmode="layer"
     id="layer1"
     transform="translate(0,-1028.3622)">
    <path
       inkscape:connector-curvature="0"
       d="m 12.904045,1030.2696 c 0,0 -0.299217,-0.7024 -0.914058,-0.7023 -0.61484,0 -0.91483,0.7023 -0.91483,0.7023 L 0.87982424,1049.433 c 0,0 -0.4108724,0.6324 -0.1034876,1.2102 0.30745576,0.5779 1.01797176,0.5085 1.01797176,0.5085 l 20.3915806,7e-4 c 0,0 0.710161,0.07 1.017556,-0.5078 0.307445,-0.5778 -0.103122,-1.2108 -0.103122,-1.2108 l -10.196278,-19.1642 z"
       style="fill:#ffff00;fill-opacity:1;fill-rule:nonzero;stroke:#df1800;stroke-width:1.32641399;stroke-linecap:round;stroke-linejoin:round"
       id="path5-3" />
    <g
       transform="matrix(0.05787802,0,0,0.06280571,0.02552774,1028.8764)"
       id="Ebene_3-5">
      <path
         inkscape:connector-curvature="0"
         d="m 244.087,136.653 c -1.066,4.434 -20.398,85.254 -22.799,94.755 -2.4,9.502 -4.668,18.506 -6.807,27.011 0,0 -1.111,5.366 -6.923,5.366 l -1.752,0 c -5.812,0 -6.923,-5.366 -6.923,-5.366 -2.139,-8.505 -4.406,-17.509 -6.807,-27.011 -2.4,-9.501 -21.729,-90.321 -22.798,-94.755 -13.697,-56.799 88.888,-58.37 74.809,0 z"
         id="path8-6" />
      <circle
         sodipodi:ry="24.256001"
         sodipodi:rx="24.256001"
         sodipodi:cy="308.54599"
         sodipodi:cx="206.717"
         d="m 230.973,308.54599 c 0,13.39622 -10.85979,24.256 -24.256,24.256 -13.39622,0 -24.25601,-10.85978 -24.25601,-24.256 0,-13.39622 10.85979,-24.256 24.25601,-24.256 13.39621,0 24.256,10.85978 24.256,24.256 z"
         cx="206.717"
         cy="308.54599"
         r="24.256001"
         id="circle10-2" />
    </g>
    <g
       transform="matrix(0.05879716,0,0,0.0638031,-0.20580226,1028.6372)"
       style="display:inline"
       id="layer1-9">
      <path
         inkscape:connector-curvature="0"
         d="m 207.42187,3.7486992 c -16.63266,0 -23.8644,14.1152908 -24.94757,16.4266348 L 9.0717821,320.53052 l 0.030762,0 c -1.4836084,2.12838 -10.0855663,15.39543 -1.7841664,29.77712 8.3221263,14.41332 24.1723803,13.59831 26.7009733,13.38125 0.0415,-0.004 0.150685,0.003 0.184569,0 l 346.62047,0.0308 0,-0.0308 c 2.57607,0.22046 18.3955,1.03671 26.70097,-13.35049 8.33158,-14.42812 -0.34665,-27.75027 -1.78416,-29.80788 l 0.0308,0 L 232.46173,20.390665 232.33868,20.175334 C 231.24163,17.833999 224.03503,3.7471353 207.42187,3.7486992 z"
         style="fill:url(#radialGradient5217-3);fill-opacity:1;fill-rule:nonzero;stroke:none"
         id="path5192-1" />
    </g>
  </g>
</svg>
